<svg width="24" height="24" viewBox="0 0 24 24" fill="none" xmlns="http://www.w3.org/2000/svg">
<path d="M20.25 14.2499C20.25 16.438 19.3808 18.5364 17.8336 20.0836C16.2865 21.6308 14.188 22.4999 12 22.4999C9.81196 22.4999 7.71354 21.6308 6.16637 20.0836C4.61919 18.5364 3.75 16.438 3.75 14.2499C3.75 12.0734 4.47028 9.83967 5.89078 7.61085C5.94674 7.52306 6.02037 7.44788 6.10698 7.39009C6.19358 7.33231 6.29127 7.29319 6.39383 7.27523C6.49638 7.25726 6.60155 7.26085 6.70264 7.28575C6.80373 7.31066 6.89853 7.35634 6.981 7.41989L9.39553 9.28007L12.0451 1.99364C12.0855 1.88252 12.1516 1.78254 12.238 1.70184C12.3245 1.62114 12.4287 1.56202 12.5423 1.5293C12.656 1.49657 12.7757 1.49118 12.8918 1.51354C13.0079 1.53591 13.1171 1.58542 13.2104 1.65801C13.498 1.88142 20.25 7.21401 20.25 14.2499Z" fill="white"/>
</svg>
