<svg width="24" height="24" viewBox="0 0 24 24" fill="none" xmlns="http://www.w3.org/2000/svg">
<path d="M15.7501 12.0001C15.7501 12.7418 15.5302 13.4668 15.1181 14.0835C14.7061 14.7002 14.1204 15.1808 13.4352 15.4647C12.75 15.7485 11.996 15.8228 11.2685 15.6781C10.5411 15.5334 9.87292 15.1762 9.34847 14.6518C8.82402 14.1273 8.46687 13.4591 8.32218 12.7317C8.17748 12.0043 8.25174 11.2503 8.53557 10.5651C8.8194 9.87983 9.30005 9.29416 9.91673 8.88211C10.5334 8.47005 11.2584 8.25012 12.0001 8.25012C12.9943 8.25126 13.9475 8.64671 14.6505 9.34973C15.3535 10.0527 15.749 11.0059 15.7501 12.0001ZM7.75747 7.75746C7.8278 7.68797 7.8837 7.60525 7.92195 7.51408C7.9602 7.4229 7.98004 7.32506 7.98034 7.22619C7.98063 7.12731 7.96138 7.02936 7.92367 6.93795C7.88597 6.84655 7.83057 6.7635 7.76065 6.69359C7.69073 6.62368 7.60768 6.56828 7.51627 6.53059C7.42486 6.49289 7.32691 6.47364 7.22803 6.47395C7.12916 6.47425 7.03132 6.4941 6.94015 6.53236C6.84897 6.57062 6.76626 6.62653 6.69678 6.69687C5.99968 7.39293 5.44666 8.21959 5.06934 9.12958C4.69201 10.0396 4.4978 11.015 4.4978 12.0001C4.4978 12.9852 4.69201 13.9607 5.06934 14.8707C5.44666 15.7806 5.99968 16.6073 6.69678 17.3034C6.76626 17.3737 6.84897 17.4296 6.94015 17.4679C7.03132 17.5061 7.12916 17.526 7.22803 17.5263C7.32691 17.5266 7.42486 17.5073 7.51627 17.4696C7.60768 17.432 7.69073 17.3766 7.76065 17.3066C7.83057 17.2367 7.88597 17.1537 7.92367 17.0623C7.96138 16.9709 7.98063 16.8729 7.98034 16.774C7.98004 16.6752 7.9602 16.5773 7.92195 16.4862C7.8837 16.395 7.8278 16.3123 7.75747 16.2428C7.19964 15.686 6.75709 15.0247 6.45513 14.2967C6.15318 13.5687 5.99776 12.7883 5.99776 12.0001C5.99776 11.212 6.15318 10.4316 6.45513 9.70356C6.75709 8.97555 7.19964 8.31424 7.75747 7.75746ZM19.5001 12.0001C19.5013 11.0151 19.3078 10.0395 18.9309 9.12937C18.5539 8.21928 18.0009 7.39262 17.3036 6.69687C17.2339 6.62721 17.1512 6.57196 17.0602 6.53426C16.9693 6.49656 16.8717 6.47715 16.7732 6.47714C16.6747 6.47714 16.5772 6.49653 16.4862 6.53421C16.3952 6.5719 16.3125 6.62713 16.2429 6.69677C16.1732 6.76641 16.118 6.84909 16.0803 6.94008C16.0426 7.03108 16.0232 7.1286 16.0231 7.2271C16.0231 7.32559 16.0425 7.42312 16.0802 7.51412C16.1179 7.60512 16.1731 7.68781 16.2428 7.75746C16.8006 8.31424 17.2432 8.97555 17.5451 9.70356C17.8471 10.4316 18.0025 11.212 18.0025 12.0001C18.0025 12.7883 17.8471 13.5687 17.5451 14.2967C17.2432 15.0247 16.8006 15.686 16.2428 16.2428C16.1035 16.3837 16.0257 16.574 16.0263 16.7722C16.027 16.9703 16.1059 17.1601 16.246 17.3002C16.3861 17.4403 16.576 17.5193 16.7741 17.5198C16.9722 17.5204 17.1625 17.4426 17.3035 17.3034C18.0008 16.6076 18.5539 15.781 18.9308 14.8709C19.3078 13.9608 19.5013 12.9852 19.5001 12.0001ZM3.01606 15.795C2.26005 14.0078 2.05506 12.0356 2.42738 10.1311C2.79969 8.22661 3.73234 6.47674 5.10575 5.10584C5.2464 4.96518 5.32542 4.77441 5.32542 4.57549C5.32542 4.37657 5.2464 4.1858 5.10575 4.04515C4.96509 3.90449 4.77432 3.82547 4.5754 3.82547C4.37649 3.82547 4.18571 3.90449 4.04506 4.04515C2.99934 5.08922 2.16974 6.32922 1.60371 7.69422C1.03769 9.05921 0.746338 10.5224 0.746338 12.0001C0.746338 13.4778 1.03769 14.941 1.60371 16.306C2.16974 17.671 2.99934 18.911 4.04506 19.9551C4.18571 20.0958 4.37649 20.1748 4.57542 20.1748C4.77434 20.1748 4.96513 20.0958 5.10579 19.9551C5.24646 19.8145 5.32549 19.6237 5.3255 19.4248C5.32551 19.2258 5.2465 19.0351 5.10584 18.8944C4.21522 18.0063 3.5055 16.9537 3.01606 15.795ZM22.3657 7.62096C21.8012 6.28426 20.9825 5.06986 19.9552 4.04515C19.8855 3.9755 19.8029 3.92024 19.7119 3.88255C19.6209 3.84485 19.5233 3.82544 19.4248 3.82544C19.3263 3.82544 19.2288 3.84483 19.1378 3.88252C19.0468 3.92021 18.9641 3.97546 18.8945 4.0451C18.8248 4.11475 18.7695 4.19743 18.7318 4.28843C18.6942 4.37943 18.6747 4.47696 18.6747 4.57546C18.6747 4.67396 18.6941 4.77149 18.7318 4.86249C18.7695 4.9535 18.8248 5.03618 18.8944 5.10584C19.8008 6.01061 20.5199 7.08525 21.0106 8.26825C21.5012 9.45126 21.7538 10.7194 21.7538 12.0001C21.7538 13.2808 21.5012 14.549 21.0106 15.732C20.5199 16.915 19.8008 17.9896 18.8944 18.8944C18.7537 19.0351 18.6747 19.2258 18.6747 19.4248C18.6747 19.6237 18.7538 19.8145 18.8945 19.9551C19.0351 20.0958 19.2259 20.1748 19.4248 20.1748C19.6238 20.1748 19.8145 20.0958 19.9552 19.9551C21.5374 18.3716 22.6117 16.3524 23.041 14.1555C23.4704 11.9586 23.2353 9.68355 22.3657 7.62087V7.62096Z" fill="#EBEBF5" fill-opacity="0.6"/>
</svg>
