<svg width="24" height="24" viewBox="0 0 24 24" fill="none" xmlns="http://www.w3.org/2000/svg">
<path d="M21 10.8319V19.5C21 19.8978 20.842 20.2794 20.5607 20.5607C20.2794 20.842 19.8978 21 19.5 21H19.4998L14.9993 20.9993C14.8004 20.9992 14.6097 20.9202 14.4691 20.7796C14.3284 20.6389 14.2494 20.4482 14.2494 20.2493V14.2493H9.74944V20.2493C9.74944 20.4482 9.67043 20.6389 9.5298 20.7796C9.38917 20.9202 9.19843 20.9992 8.99953 20.9993L4.50019 20.9999C4.30319 20.9999 4.10811 20.9612 3.9261 20.8858C3.74409 20.8104 3.57871 20.6999 3.43941 20.5606C3.3001 20.4214 3.18959 20.256 3.1142 20.074C3.03881 19.892 3 19.6969 3 19.4999V10.8318C3.00016 10.6228 3.04391 10.4162 3.12845 10.225C3.21299 10.0339 3.33645 9.86251 3.49097 9.7218L10.9903 2.90308C11.2658 2.65075 11.6258 2.51078 11.9994 2.51074C12.3729 2.51071 12.733 2.65062 13.0085 2.90289L20.5091 9.72189C20.6636 9.86263 20.787 10.034 20.8716 10.2252C20.9561 10.4163 20.9998 10.6229 21 10.8319Z" fill="#EBEBF5" fill-opacity="0.6"/>
</svg>
