<svg width="24" height="24" viewBox="0 0 24 24" fill="none" xmlns="http://www.w3.org/2000/svg">
<path d="M11.25 4.5V10.5C11.2501 10.5985 11.2307 10.6961 11.193 10.7871C11.1554 10.8781 11.1001 10.9608 11.0305 11.0305C10.9608 11.1001 10.8781 11.1554 10.7871 11.193C10.6961 11.2307 10.5985 11.2501 10.5 11.25H4.5C4.40149 11.2501 4.30394 11.2307 4.21291 11.193C4.12189 11.1554 4.03919 11.1001 3.96953 11.0305C3.89988 10.9608 3.84463 10.8781 3.80696 10.7871C3.7693 10.6961 3.74994 10.5985 3.75 10.5V4.5C3.74994 4.40149 3.7693 4.30394 3.80696 4.21291C3.84463 4.12189 3.89988 4.03919 3.96953 3.96953C4.03919 3.89988 4.12189 3.84463 4.21291 3.80696C4.30394 3.7693 4.40149 3.74994 4.5 3.75H10.5C10.5985 3.74994 10.6961 3.7693 10.7871 3.80696C10.8781 3.84463 10.9608 3.89988 11.0305 3.96953C11.1001 4.03919 11.1554 4.12189 11.193 4.21291C11.2307 4.30394 11.2501 4.40149 11.25 4.5ZM19.5 3.75H13.5C13.4015 3.74994 13.3039 3.7693 13.2129 3.80696C13.1219 3.84463 13.0392 3.89988 12.9695 3.96953C12.8999 4.03919 12.8446 4.12189 12.807 4.21291C12.7693 4.30394 12.7499 4.40149 12.75 4.5V10.5C12.7499 10.5985 12.7693 10.6961 12.807 10.7871C12.8446 10.8781 12.8999 10.9608 12.9695 11.0305C13.0392 11.1001 13.1219 11.1554 13.2129 11.193C13.3039 11.2307 13.4015 11.2501 13.5 11.25H19.5C19.5985 11.2501 19.6961 11.2307 19.7871 11.193C19.8781 11.1554 19.9608 11.1001 20.0305 11.0305C20.1001 10.9608 20.1554 10.8781 20.193 10.7871C20.2307 10.6961 20.2501 10.5985 20.25 10.5V4.5C20.2501 4.40149 20.2307 4.30394 20.193 4.21291C20.1554 4.12189 20.1001 4.03919 20.0305 3.96953C19.9608 3.89988 19.8781 3.84463 19.7871 3.80696C19.6961 3.7693 19.5985 3.74994 19.5 3.75ZM10.5 12.75H4.5C4.40149 12.7499 4.30394 12.7693 4.21291 12.807C4.12189 12.8446 4.03919 12.8999 3.96953 12.9695C3.89988 13.0392 3.84463 13.1219 3.80696 13.2129C3.7693 13.3039 3.74994 13.4015 3.75 13.5V19.5C3.74994 19.5985 3.7693 19.6961 3.80696 19.7871C3.84463 19.8781 3.89988 19.9608 3.96953 20.0305C4.03919 20.1001 4.12189 20.1554 4.21291 20.193C4.30394 20.2307 4.40149 20.2501 4.5 20.25H10.5C10.5985 20.2501 10.6961 20.2307 10.7871 20.193C10.8781 20.1554 10.9608 20.1001 11.0305 20.0305C11.1001 19.9608 11.1554 19.8781 11.193 19.7871C11.2307 19.6961 11.2501 19.5985 11.25 19.5V13.5C11.2501 13.4015 11.2307 13.3039 11.193 13.2129C11.1554 13.1219 11.1001 13.0392 11.0305 12.9695C10.9608 12.8999 10.8781 12.8446 10.7871 12.807C10.6961 12.7693 10.5985 12.7499 10.5 12.75ZM19.5 12.75H13.5C13.4015 12.7499 13.3039 12.7693 13.2129 12.807C13.1219 12.8446 13.0392 12.8999 12.9695 12.9695C12.8999 13.0392 12.8446 13.1219 12.807 13.2129C12.7693 13.3039 12.7499 13.4015 12.75 13.5V19.5C12.7499 19.5985 12.7693 19.6961 12.807 19.7871C12.8446 19.8781 12.8999 19.9608 12.9695 20.0305C13.0392 20.1001 13.1219 20.1554 13.2129 20.193C13.3039 20.2307 13.4015 20.2501 13.5 20.25H19.5C19.5985 20.2501 19.6961 20.2307 19.7871 20.193C19.8781 20.1554 19.9608 20.1001 20.0305 20.0305C20.1001 19.9608 20.1554 19.8781 20.193 19.7871C20.2307 19.6961 20.2501 19.5985 20.25 19.5V13.5C20.2501 13.4015 20.2307 13.3039 20.193 13.2129C20.1554 13.1219 20.1001 13.0392 20.0305 12.9695C19.9608 12.8999 19.8781 12.8446 19.7871 12.807C19.6961 12.7693 19.5985 12.7499 19.5 12.75Z" fill="#EBEBF5" fill-opacity="0.6"/>
</svg>
