<svg width="24" height="24" viewBox="0 0 24 24" fill="none" xmlns="http://www.w3.org/2000/svg">
<path d="M15.613 18.0735C15.6921 18.1859 15.7389 18.3178 15.7481 18.4548C15.7574 18.5919 15.7288 18.7289 15.6655 18.8508C15.6022 18.9728 15.5067 19.075 15.3893 19.1463C15.2719 19.2176 15.1371 19.2554 14.9997 19.2553L1.49936 19.2559C1.36198 19.2559 1.22723 19.2182 1.10982 19.1469C0.992413 19.0755 0.896854 18.9733 0.833572 18.8514C0.77029 18.7294 0.741717 18.5925 0.750971 18.4554C0.760225 18.3183 0.806951 18.1864 0.886049 18.0741C1.93932 16.5795 3.42192 15.4404 5.13733 14.8076C4.13104 14.1391 3.36668 13.1645 2.95738 12.0279C2.54807 10.8913 2.51557 9.65306 2.86469 8.49654C3.2138 7.34001 3.92597 6.32661 4.89581 5.60631C5.86565 4.886 7.04162 4.49707 8.24969 4.49707C9.45776 4.49707 10.6337 4.886 11.6036 5.60631C12.5734 6.32661 13.2856 7.34001 13.6347 8.49654C13.9838 9.65306 13.9513 10.8913 13.542 12.0279C13.1327 13.1645 12.3683 14.1391 11.362 14.8076C13.0772 15.4403 14.5597 16.5793 15.613 18.0735H15.613ZM23.2557 18.0735C22.2025 16.5792 20.72 15.4403 19.0047 14.8076C20.1201 14.0653 20.9339 12.9493 21.2997 11.6604C21.6655 10.3715 21.5592 8.99443 21 7.77693C20.4408 6.55944 19.4654 5.58151 18.2493 5.01918C17.0333 4.45684 15.6565 4.34701 14.3666 4.70947C14.2496 4.74241 14.1422 4.80333 14.0539 4.88699C13.9656 4.97064 13.899 5.07451 13.8598 5.18965C13.8206 5.30479 13.81 5.42774 13.8288 5.5479C13.8477 5.66806 13.8956 5.78182 13.9682 5.87938C14.816 7.01826 15.3034 8.3849 15.3675 9.80325C15.4317 11.2216 15.0697 12.6267 14.3282 13.8374C14.2303 13.9971 14.1957 14.1877 14.2311 14.3716C14.2666 14.5555 14.3696 14.7195 14.5199 14.8313C14.8043 15.0429 15.0778 15.2687 15.3396 15.5077C15.3532 15.5224 15.3668 15.537 15.3818 15.5508C16.3828 16.4762 17.194 17.5877 17.7703 18.8232C17.8307 18.9525 17.9267 19.0619 18.0471 19.1385C18.1675 19.2151 18.3073 19.2558 18.45 19.2558L22.6425 19.2553C22.7799 19.2553 22.9146 19.2176 23.032 19.1462C23.1494 19.0749 23.2449 18.9727 23.3082 18.8507C23.3714 18.7288 23.4 18.5918 23.3907 18.4548C23.3815 18.3177 23.3347 18.1858 23.2556 18.0735H23.2557Z" fill="#EBEBF5" fill-opacity="0.6"/>
</svg>
